<svg width="9" height="44" viewBox="0 0 9 44" fill="none" xmlns="http://www.w3.org/2000/svg">
<path d="M7.77734 0.34375L7.07422 30.4316H1.03906L0.306641 0.34375H7.77734ZM0.101562 39.6602C0.101562 38.5859 0.453125 37.6875 1.15625 36.9648C1.87891 36.2227 2.875 35.8516 4.14453 35.8516C5.39453 35.8516 6.38086 36.2227 7.10352 36.9648C7.82617 37.6875 8.1875 38.5859 8.1875 39.6602C8.1875 40.6953 7.82617 41.584 7.10352 42.3262C6.38086 43.0488 5.39453 43.4102 4.14453 43.4102C2.875 43.4102 1.87891 43.0488 1.15625 42.3262C0.453125 41.584 0.101562 40.6953 0.101562 39.6602Z" fill="#ECF6F7"/>
</svg>
