<svg width="28" height="30" viewBox="0 0 28 30" fill="none" xmlns="http://www.w3.org/2000/svg">
<path d="M3.5 30C2.675 30 1.96875 29.7063 1.38125 29.1188C0.79375 28.5312 0.5 27.825 0.5 27V6C0.5 5.175 0.79375 4.46875 1.38125 3.88125C1.96875 3.29375 2.675 3 3.5 3H5V0H8V3H20V0H23V3H24.5C25.325 3 26.0312 3.29375 26.6188 3.88125C27.2063 4.46875 27.5 5.175 27.5 6V27C27.5 27.825 27.2063 28.5312 26.6188 29.1188C26.0312 29.7063 25.325 30 24.5 30H3.5ZM3.5 27H24.5V12H3.5V27ZM3.5 9H24.5V6H3.5V9ZM14 18C13.575 18 13.2188 17.8563 12.9313 17.5688C12.6438 17.2812 12.5 16.925 12.5 16.5C12.5 16.075 12.6438 15.7188 12.9313 15.4313C13.2188 15.1438 13.575 15 14 15C14.425 15 14.7813 15.1438 15.0688 15.4313C15.3563 15.7188 15.5 16.075 15.5 16.5C15.5 16.925 15.3563 17.2812 15.0688 17.5688C14.7813 17.8563 14.425 18 14 18ZM8 18C7.575 18 7.21875 17.8563 6.93125 17.5688C6.64375 17.2812 6.5 16.925 6.5 16.5C6.5 16.075 6.64375 15.7188 6.93125 15.4313C7.21875 15.1438 7.575 15 8 15C8.425 15 8.78125 15.1438 9.06875 15.4313C9.35625 15.7188 9.5 16.075 9.5 16.5C9.5 16.925 9.35625 17.2812 9.06875 17.5688C8.78125 17.8563 8.425 18 8 18ZM20 18C19.575 18 19.2188 17.8563 18.9313 17.5688C18.6438 17.2812 18.5 16.925 18.5 16.5C18.5 16.075 18.6438 15.7188 18.9313 15.4313C19.2188 15.1438 19.575 15 20 15C20.425 15 20.7812 15.1438 21.0688 15.4313C21.3563 15.7188 21.5 16.075 21.5 16.5C21.5 16.925 21.3563 17.2812 21.0688 17.5688C20.7812 17.8563 20.425 18 20 18ZM14 24C13.575 24 13.2188 23.8563 12.9313 23.5688C12.6438 23.2812 12.5 22.925 12.5 22.5C12.5 22.075 12.6438 21.7188 12.9313 21.4313C13.2188 21.1438 13.575 21 14 21C14.425 21 14.7813 21.1438 15.0688 21.4313C15.3563 21.7188 15.5 22.075 15.5 22.5C15.5 22.925 15.3563 23.2812 15.0688 23.5688C14.7813 23.8563 14.425 24 14 24ZM8 24C7.575 24 7.21875 23.8563 6.93125 23.5688C6.64375 23.2812 6.5 22.925 6.5 22.5C6.5 22.075 6.64375 21.7188 6.93125 21.4313C7.21875 21.1438 7.575 21 8 21C8.425 21 8.78125 21.1438 9.06875 21.4313C9.35625 21.7188 9.5 22.075 9.5 22.5C9.5 22.925 9.35625 23.2812 9.06875 23.5688C8.78125 23.8563 8.425 24 8 24ZM20 24C19.575 24 19.2188 23.8563 18.9313 23.5688C18.6438 23.2812 18.5 22.925 18.5 22.5C18.5 22.075 18.6438 21.7188 18.9313 21.4313C19.2188 21.1438 19.575 21 20 21C20.425 21 20.7812 21.1438 21.0688 21.4313C21.3563 21.7188 21.5 22.075 21.5 22.5C21.5 22.925 21.3563 23.2812 21.0688 23.5688C20.7812 23.8563 20.425 24 20 24Z" fill="#8DC0DF"/>
</svg>
