<svg width="24" height="24" viewBox="0 0 24 24" fill="none" xmlns="http://www.w3.org/2000/svg">
<g clip-path="url(#clip0_568_50)">
<path d="M23.9888 2.53121C24.0116 2.3938 23.9982 2.25281 23.9498 2.12219C23.9015 1.99156 23.8198 1.87583 23.713 1.78645C23.6061 1.69707 23.4778 1.63713 23.3407 1.61257C23.2036 1.58801 23.0624 1.59968 22.9312 1.64641L0.531206 9.64641C0.383555 9.69907 0.254625 9.79394 0.160433 9.91924C0.0662413 10.0445 0.010938 10.1948 0.00139315 10.3512C-0.00815171 10.5077 0.0284825 10.6635 0.106745 10.7993C0.185007 10.9352 0.301449 11.045 0.441606 11.1152L6.84161 14.3152C6.96773 14.3783 7.10831 14.407 7.24908 14.3983C7.38986 14.3896 7.52582 14.3438 7.64321 14.2656L12.9552 10.7232L9.77601 14.7008C9.70682 14.7874 9.65638 14.8874 9.62788 14.9945C9.59937 15.1016 9.59343 15.2134 9.61043 15.3229C9.62743 15.4325 9.667 15.5372 9.72662 15.6307C9.78625 15.7241 9.86463 15.8041 9.95681 15.8656L19.5568 22.2656C19.668 22.3395 19.7959 22.3844 19.9288 22.3963C20.0618 22.4081 20.1956 22.3865 20.3181 22.3334C20.4406 22.2802 20.5478 22.1973 20.63 22.0921C20.7122 21.987 20.7668 21.8629 20.7888 21.7312L23.9888 2.53121Z" fill="#356380"/>
</g>
<defs>
<clipPath id="clip0_568_50">
<rect width="24" height="24" fill="white"/>
</clipPath>
</defs>
</svg>
