<svg width="329" height="329" viewBox="0 0 329 329" fill="none" xmlns="http://www.w3.org/2000/svg">
<path d="M164.344 328.328C141.669 328.328 120.36 324.025 100.417 315.419C80.4732 306.814 63.1253 295.135 48.3727 280.382C33.6201 265.629 21.941 248.281 13.3353 228.338C4.72965 208.395 0.426819 187.086 0.426819 164.41C0.426819 141.735 4.72965 120.426 13.3353 100.482C21.941 80.5392 33.6201 63.1912 48.3727 48.4387C63.1253 33.6861 80.4732 22.007 100.417 13.4013C120.36 4.79563 141.669 0.492798 164.344 0.492798C187.02 0.492798 208.329 4.79563 228.272 13.4013C248.215 22.007 265.563 33.6861 280.316 48.4387C295.069 63.1912 306.748 80.5392 315.353 100.482C323.959 120.426 328.262 141.735 328.262 164.41C328.262 171.787 327.852 179.026 327.033 186.129C326.213 193.232 324.847 200.199 322.935 207.029C319.11 202.658 314.67 198.97 309.616 195.964C304.562 192.959 299.03 190.91 293.02 189.818C293.839 185.72 294.454 181.553 294.864 177.319C295.273 173.084 295.478 168.781 295.478 164.41C295.478 127.802 282.775 96.7943 257.368 71.3871C231.96 45.9799 200.953 33.2763 164.344 33.2763C127.736 33.2763 96.7284 45.9799 71.3212 71.3871C45.9139 96.7943 33.2103 127.802 33.2103 164.41C33.2103 201.019 45.9139 232.026 71.3212 257.434C96.7284 282.841 127.736 295.544 164.344 295.544C178.277 295.544 191.596 293.495 204.299 289.397C217.003 285.299 228.682 279.562 239.337 272.186C242.615 276.83 246.645 280.928 251.426 284.48C256.206 288.031 261.329 290.763 266.793 292.676C252.86 303.877 237.219 312.619 219.871 318.903C202.523 325.186 184.014 328.328 164.344 328.328ZM283.185 262.761C277.447 262.761 272.598 260.78 268.637 256.819C264.676 252.857 262.695 248.008 262.695 242.271C262.695 236.534 264.676 231.685 268.637 227.723C272.598 223.762 277.447 221.781 283.185 221.781C288.922 221.781 293.771 223.762 297.732 227.723C301.694 231.685 303.674 236.534 303.674 242.271C303.674 248.008 301.694 252.857 297.732 256.819C293.771 260.78 288.922 262.761 283.185 262.761ZM218.437 241.452L147.953 170.967V82.4516H180.736V157.854L241.386 218.503L218.437 241.452Z" fill="#ECF6F7"/>
</svg>
