<svg width="20" height="21" viewBox="0 0 20 21" fill="none" xmlns="http://www.w3.org/2000/svg">
<path fill-rule="evenodd" clip-rule="evenodd" d="M14.676 0.627984C11.5298 -0.0752949 8.26718 -0.0752949 5.12101 0.627984L4.78201 0.702984C3.89702 0.900846 3.08421 1.34017 2.43387 1.97215C1.78353 2.60413 1.32112 3.40403 1.09801 4.28298C0.300502 7.42551 0.300502 10.7175 1.09801 13.86C1.31078 14.6982 1.74141 15.4653 2.34624 16.0835C2.95107 16.7017 3.70859 17.149 4.54201 17.38L5.00701 20.156C5.02185 20.2441 5.06005 20.3267 5.11764 20.3951C5.17523 20.4634 5.25009 20.5151 5.33443 20.5447C5.41877 20.5743 5.50951 20.5808 5.5972 20.5634C5.68489 20.5461 5.76632 20.5055 5.83301 20.446L8.564 18.003C10.6141 18.1281 12.6716 17.9641 14.676 17.516L15.016 17.441C15.901 17.2431 16.7138 16.8038 17.3641 16.1718C18.0145 15.5398 18.4769 14.7399 18.7 13.861C19.4974 10.7184 19.4974 7.42652 18.7 4.28398C18.4768 3.4049 18.0142 2.60492 17.3637 1.97292C16.7132 1.34093 15.9002 0.901681 15.015 0.703984L14.676 0.627984ZM5.96501 4.20198C5.77915 4.17493 5.58964 4.21234 5.42801 4.30798H5.41401C5.03901 4.52798 4.70101 4.80498 4.41301 5.13098C4.17301 5.40798 4.043 5.68798 4.00901 5.95798C3.98901 6.11798 4.00301 6.27998 4.05001 6.43298L4.06801 6.44298C4.33801 7.23598 4.69001 7.99898 5.12001 8.71698C5.67446 9.72547 6.35676 10.6582 7.15 11.492L7.17401 11.526L7.21201 11.554L7.235 11.581L7.263 11.605C8.09973 12.4006 9.03463 13.0862 10.045 13.645C11.2 14.274 11.901 14.571 12.322 14.695V14.701C12.445 14.739 12.557 14.756 12.67 14.756C13.0285 14.7295 13.3679 14.5837 13.634 14.342C13.959 14.054 14.234 13.715 14.448 13.338V13.331C14.649 12.951 14.581 12.593 14.291 12.35C13.7085 11.841 13.0786 11.389 12.41 11C11.962 10.757 11.507 10.904 11.323 11.15L10.93 11.646C10.728 11.892 10.362 11.858 10.362 11.858L10.352 11.864C7.62101 11.167 6.89201 8.40198 6.89201 8.40198C6.89201 8.40198 6.85801 8.02598 7.11101 7.83398L7.603 7.43798C7.839 7.24598 8.00301 6.79198 7.75001 6.34398C7.36361 5.67475 6.91245 5.04506 6.40301 4.46398C6.29189 4.32723 6.13607 4.23409 5.96301 4.20098L5.96501 4.20198ZM10.579 2.99998C10.4464 2.99998 10.3192 3.05266 10.2255 3.14643C10.1317 3.2402 10.079 3.36738 10.079 3.49998C10.079 3.63259 10.1317 3.75977 10.2255 3.85354C10.3192 3.94731 10.4464 3.99998 10.579 3.99998C11.844 3.99998 12.894 4.41298 13.725 5.20498C14.152 5.63798 14.485 6.15098 14.703 6.71298C14.922 7.27598 15.022 7.87698 14.996 8.47898C14.9932 8.54464 15.0034 8.61021 15.026 8.67192C15.0486 8.73364 15.0831 8.79031 15.1276 8.83869C15.2174 8.93639 15.3424 8.99441 15.475 8.99998C15.6076 9.00555 15.737 8.95822 15.8347 8.86839C15.9324 8.77856 15.9904 8.65359 15.996 8.52098C16.027 7.78047 15.9041 7.04157 15.635 6.35098C15.3647 5.65712 14.955 5.0261 14.431 4.49698L14.421 4.48698C13.39 3.50198 12.085 2.99998 10.579 2.99998ZM10.545 4.64398C10.4124 4.64398 10.2852 4.69666 10.1915 4.79043C10.0977 4.8842 10.045 5.01138 10.045 5.14398C10.045 5.27659 10.0977 5.40377 10.1915 5.49754C10.2852 5.59131 10.4124 5.64398 10.545 5.64398H10.562C11.474 5.70898 12.138 6.01298 12.603 6.51198C13.08 7.02598 13.327 7.66498 13.308 8.45498C13.305 8.58759 13.3547 8.71598 13.4463 8.81191C13.5379 8.90783 13.6639 8.96343 13.7965 8.96648C13.9291 8.96953 14.0575 8.91978 14.1534 8.82817C14.2494 8.73656 14.305 8.61059 14.308 8.47798C14.332 7.44098 13.998 6.54598 13.336 5.83198V5.82998C12.659 5.10398 11.73 4.71998 10.612 4.64498L10.595 4.64298L10.545 4.64398ZM10.526 6.31898C10.4591 6.31308 10.3917 6.32072 10.3278 6.34145C10.2639 6.36217 10.2048 6.39556 10.1541 6.43962C10.1034 6.48368 10.0621 6.53751 10.0327 6.59788C10.0032 6.65826 9.98623 6.72395 9.98273 6.79103C9.97924 6.85812 9.9893 6.92521 10.0123 6.98832C10.0353 7.05143 10.0708 7.10926 10.1167 7.15835C10.1625 7.20744 10.2178 7.24679 10.2792 7.27404C10.3406 7.3013 10.4068 7.3159 10.474 7.31698C10.892 7.33898 11.159 7.46498 11.327 7.63398C11.496 7.80398 11.622 8.07698 11.645 8.50398C11.6463 8.57108 11.661 8.63724 11.6884 8.69853C11.7157 8.75981 11.7551 8.81495 11.8043 8.86068C11.8534 8.9064 11.9112 8.94177 11.9743 8.96467C12.0374 8.98757 12.1044 8.99754 12.1714 8.99398C12.2385 8.99042 12.3041 8.97341 12.3644 8.94395C12.4247 8.9145 12.4784 8.87321 12.5224 8.82254C12.5664 8.77187 12.5998 8.71286 12.6205 8.64902C12.6412 8.58519 12.6489 8.51784 12.643 8.45098C12.611 7.85098 12.423 7.32098 12.038 6.93098C11.651 6.54098 11.124 6.35098 10.526 6.31898Z" fill="#356380"/>
</svg>
