<svg width="18" height="16" viewBox="0 0 18 16" fill="none" xmlns="http://www.w3.org/2000/svg">
<path d="M15.89 3.01222C16.698 2.51622 17.233 1.83922 17.495 0.978219C16.7571 1.37733 15.9651 1.66734 15.144 1.83922C14.441 1.08322 13.551 0.699219 12.484 0.699219C11.441 0.699219 10.56 1.06522 9.84099 1.77722C9.49377 2.11532 9.21924 2.52076 9.03422 2.9687C8.8492 3.41664 8.75758 3.89763 8.76499 4.38222C8.76499 4.69122 8.80399 4.96722 8.88199 5.20122C5.80599 5.09622 3.25999 3.82022 1.25399 1.36422C0.913993 1.96522 0.743993 2.57722 0.743993 3.21022C0.743993 4.51122 1.29299 5.54222 2.38899 6.29922C1.76399 6.24622 1.21299 6.08822 0.743993 5.82922C0.743993 6.75822 1.01699 7.53422 1.56399 8.21722C2.09535 8.88276 2.84417 9.33984 3.67899 9.50822C3.36699 9.58822 3.03799 9.62622 2.69999 9.62622C2.38799 9.62622 2.16699 9.60022 2.03599 9.54322C2.26599 10.3002 2.69999 10.9142 3.32699 11.3842C3.94683 11.8549 4.70081 12.1152 5.47899 12.1272C4.14699 13.1722 2.62399 13.6892 0.900993 13.6892C0.478993 13.6892 0.179993 13.6832 -0.00100708 13.6512C1.69599 14.7532 3.58499 15.3002 5.67499 15.3002C7.81399 15.3002 9.70399 14.7582 11.349 13.6742C12.994 12.5962 14.208 11.2662 14.988 9.70022C15.7593 8.18493 16.161 6.50854 16.16 4.80822V4.34022C16.879 3.81014 17.5014 3.16033 18 2.41922C17.3266 2.71108 16.6168 2.91055 15.89 3.01222Z" fill="#356380"/>
</svg>
